{"title":"18+ The Perfect Match 2016 UNCENSORED Movies BRRip XviD ESubs ☻r","uid":15182800,"size":739361458,"categoryP":"video","categoryS":"movies","magnet":"?xt=urn:btih:d5039ca3013ccc0d2081b91c0481041c1660995e&amp;dn=18%2B+The+Perfect+Match+2016+UNCENSORED+Movies+BRRip+XviD+ESubs+%E2%98%BBr&amp;tr=udp%3A%2F%2Ftracker.leechers-paradise.org%3A6969&amp;tr=udp%3A%2F%2Fzer0day.ch%3A1337&amp;tr=udp%3A%2F%2Fopen.demonii.com%3A1337&amp;tr=udp%3A%2F%2Ftracker.coppersurfer.tk%3A6969&amp;tr=udp%3A%2F%2Fexodus.desync.com%3A6969","seeders":7,"leechers":5,"uploader":"basicssom","files":3,"time":1467470692,"description":"----------------------------------------------------------------\r\n18+ The Perfect Match 2016 UNCENSORED English Movies BRRip XviD ESubs New Source with Sample ☻rDX☻\r\n\r\nSCREEN SHOTS &amp; POSTER:\r\n  \nhttp://mobileshosting.com/2016/7/income/index.htm  \nhttp://mobileshosting.com/2016/7/income/1.html  \nhttp://mobileshosting.com/2016/7/income/2.html  \nhttp://mobileshosting.com/2016/7/income/3.html  \nhttp://mobileshosting.com/2016/7/income/4.html  \nhttp://mobileshosting.com/2016/7/income/5.html  \nhttp://mobileshosting.com/2016/7/income/6.html  \nhttp://mobileshosting.com/2016/7/income/7.html  \nhttp://mobileshosting.com/2016/7/income/8.html  \nhttp://mobileshosting.com/2016/7/income/9.html  \nhttp://mobileshosting.com/2016/7/income/10.html\r\n\r\nFormat                                   : Matroska\r\nFormat version                           : Version 4 / Version 2\r\nFile size                                : 694 MiB\r\nDuration                                 : 1h 35mn\r\nOverall bit rate                         : 1 016 Kbps\r\nMovie name                               : 18+ The Perfect Match 2016 UNCENSORED English Movies BRRip XviD ESubs New Source ☻rDX☻\r\n\r\nVideo\r\nID                                       : 1\r\nFormat                                   : MPEG-4 Visual\r\nFormat profile                           : Advanced   \r\nFormat settings, BVOP                    : Yes\r\nFormat settings, QPel                    : No\r\nFormat settings, GMC                     : No warppoints\r\nFormat settings, Matrix                  : Default (H.263)\r\nCodec ID                                 : V_MS/VFW/FOURCC / XVID\r\nCodec ID/Hint                            : XviD\r\nDuration                                 : 1h 35mn\r\nBit rate                                 : 867 Kbps\r\nWidth                                    : 640 pixels\r\nHeight                                   : 352 pixels\r\nDisplay aspect ratio                     : 16:9\r\nFrame rate mode                          : Constant\r\nFrame rate                               : 23.976 fps\r\nColor space                              : YUV\r\nChroma subsampling                       : 4:2:0\r\nBit depth                                : 8 bits\r\nScan type                                : Progressive\r\nCompression mode                         : Lossy\r\nBits/(Pixel*Frame)                       : 0.161\r\nStream size                              : 593 MiB (85%)\r\nTitle                                    : ☻rDX☻\r\nWriting library                          : XviD 65\r\nDefault                                  : Yes\r\nForced                                   : No\r\n\r\nAudio\r\nID                                       : 2\r\nFormat                                   : MPEG Audio\r\nFormat version                           : Version 1\r\nFormat profile                           : Layer 3\r\nMode                                     : Joint stereo\r\nMode extension                           : MS Stereo\r\nCodec ID                                 : A_MPEG/L3\r\nCodec ID/Hint                            : MP3\r\nDuration                                 : 1h 35mn\r\nBit rate mode                            : Constant\r\nBit rate                                 : 128 Kbps\r\nChannel(s)                               : 2 channels\r\nSampling rate                            : 48.0 KHz\r\nCompression mode                         : Lossy\r\nStream size                              : 87.5 MiB (13%)\r\nTitle                                    : ☻rDX☻\r\nWriting library                          : LAME3.98\r\nDefault                                  : Yes\r\nForced                                   : No\r\n\r\nIMDB \nhttp://www.imdb.com/title/tt4871980/","torrent":{"xt":"urn:btih:d5039ca3013ccc0d2081b91c0481041c1660995e","amp;dn":"18%2B+The+Perfect+Match+2016+UNCENSORED+Movies+BRRip+XviD+ESubs+%E2%98%BBr","amp;tr":["udp%3A%2F%2Ftracker.leechers-paradise.org%3A6969","udp%3A%2F%2Fzer0day.ch%3A1337","udp%3A%2F%2Fopen.demonii.com%3A1337","udp%3A%2F%2Ftracker.coppersurfer.tk%3A6969","udp%3A%2F%2Fexodus.desync.com%3A6969"],"infoHash":"d5039ca3013ccc0d2081b91c0481041c1660995e","infoHashBuffer":{"type":"Buffer","data":[213,3,156,163,1,60,204,13,32,129,185,28,4,129,4,28,22,96,153,94]},"announce":[],"urlList":[]}}